<?xml version="1.0" standalone="no"?>
<!DOCTYPE svg PUBLIC "-//W3C//DTD SVG 20010904//EN"
 "http://www.w3.org/TR/2001/REC-SVG-20010904/DTD/svg10.dtd">
<svg version="1.0" xmlns="http://www.w3.org/2000/svg"
 width="256.000000pt" height="256.000000pt" viewBox="0 0 256.000000 256.000000"
 preserveAspectRatio="xMidYMid meet">
<metadata>
Created by potrace 1.11, written by Peter Selinger 2001-2013
</metadata>
<g transform="translate(0.000000,256.000000) scale(0.100000,-0.100000)"
fill="#000000" stroke="none">
<path d="M324 2549 c-13 -21 -8 -359 5 -372 9 -9 190 -12 752 -13 528 -1 743
-4 751 -12 8 -8 11 -136 11 -427 0 -349 -2 -418 -14 -426 -8 -5 -333 -9 -749
-9 -411 0 -741 -4 -749 -9 -12 -8 -14 -106 -14 -618 0 -334 3 -621 7 -636 5
-23 11 -28 34 -25 25 3 33 21 191 443 90 242 165 441 167 443 1 2 310 3 686 3
465 0 695 4 720 11 47 14 93 59 109 106 9 28 12 208 12 719 0 772 3 746 -75
799 l-41 29 -898 3 c-677 2 -899 -1 -905 -9z"/>
</g>
</svg>
